<?xml version="1.0" encoding="UTF-8" standalone="no"?>
<svg width="562px" height="357px" viewBox="0 0 562 357" version="1.1" xmlns="http://www.w3.org/2000/svg" xmlns:xlink="http://www.w3.org/1999/xlink">
    <!-- Generator: Sketch 50.2 (55047) - http://www.bohemiancoding.com/sketch -->
    <title>Group</title>
    <desc>Created with Sketch.</desc>
    <defs></defs>
    <g id="Page-1" stroke="none" stroke-width="1" fill="none" fill-rule="evenodd">
        <g id="Desktop" transform="translate(-118.000000, -404.000000)">
            <g id="Group" transform="translate(118.000000, 404.000000)">
                <path d="M542.5,106.5 L542.5,27.5 L19.5,27.5 L19.5,106.5 L542.5,106.5 Z M542.5,243.5 L19.5,243.5 L19.5,329.5 L542.5,329.5 L542.5,243.5 Z" id="Combined-Shape" stroke="#000000" stroke-width="17" transform="translate(281.000000, 178.500000) rotate(-4.000000) translate(-281.000000, -178.500000) "></path>
                <path d="M36.5,103.5 L36.5,243.5 L525.5,243.5 L525.5,103.5 L36.5,103.5 Z" id="Rectangle" stroke="#FFFFFF" stroke-width="17" fill="#FFFFFF" transform="translate(281.000000, 173.500000) rotate(-4.000000) translate(-281.000000, -173.500000) "></path>
                <text id="UNITED-TRACTORS" transform="translate(270.595040, 66.718739) rotate(-4.000000) translate(-270.595040, -66.718739) " font-family="NotoSans-Black, Noto Sans" font-size="49" font-weight="700" letter-spacing="0.219999999" fill="#000000">
                    <tspan x="38.09504" y="85.7187388">UNITED TRACTOR</tspan>
                    <tspan x="473.99204" y="85.7187388">S</tspan>
                </text>
                <text id="GUARANTEED" transform="translate(276.066254, 119.513918) rotate(-4.000000) translate(-276.066254, -119.513918) " font-family="NotoSans-Black, Noto Sans" font-size="67" font-weight="700" letter-spacing="1.66999996" fill="#FF0000">
                    <tspan x="38.0662544" y="145.513918">GUARANTEE</tspan>
                    <tspan x="464.409254" y="145.513918">D</tspan>
                </text>
                <text id="SUPPORT" transform="translate(301.000000, 265.000000) rotate(-4.000000) translate(-301.000000, -265.000000) " font-family="NotoSans-Black, Noto Sans" font-size="100" font-weight="700" letter-spacing="2.48000002" fill="#000000">
                    <tspan x="45" y="304">SUPPOR</tspan>
                    <tspan x="467.08" y="304">T</tspan>
                </text>
                <text id="PRODUCT" transform="translate(279.486327, 186.737783) rotate(-4.000000) translate(-279.486327, -186.737783) " font-family="NotoSans-Black, Noto Sans" font-size="99" font-weight="700" letter-spacing="0.179989219" fill="#000000">
                    <tspan x="38.9863272" y="225.237783">PRODUCT</tspan>
                </text>
            </g>
        </g>
    </g>
</svg>